<svg width="43" height="41" xmlns="http://www.w3.org/2000/svg" fill="none">
 <g>
  <title>Layer 1</title>
  <path fill-rule="evenodd" clip-rule="evenodd" d="m23.9791,1.11953c-1.4938,-1.49313 -3.9151,-1.49264 -5.4082,0.00111l-12.46134,12.46645l-0.01062,-0.0031l-0.03938,0.0042c0.01622,0.0078 0.03214,0.0155 0.04774,0.0233c-2.18598,0.229 -3.11346,0.8859 -3.12396,1.7295c0.0037,0.3138 0.13245,0.6527 0.36894,1.0045l-0.01137,0.0114c1.98728,2.9973 11.83219,6.9512 18.79719,4.2723c-5.22,2.61 -17.51334,3.1273 -21.12409,-1.9403c-0.78414,0.8483 -1.11222,1.9631 -0.98867,3.0344c0.95386,5.2574 11.61806,6.6917 22.28236,-0.9256l2.3077,2.3077c-2.8716,2.9502 -7.1133,20.0867 -0.8106,17.4703c0.1495,-0.1015 0.2764,-0.1923 0.449,-0.3229l0.2809,-0.2652c-0.0162,0.004 -0.0323,0.0078 -0.0483,0.0116l16.88,-15.9357c1.5673,-1.4797 1.6028,-3.9616 0.0783,-5.4855l-17.4656,-17.45846zm-1.8382,5.19329l0.5769,-2.30769l0.5769,2.30769l1.7308,0.57693l-1.7308,0.57694l-0.5769,2.3077l-0.5769,-2.3077l-1.7308,-0.57694l1.7308,-0.57693zm-7.1409,7.53337l0.3846,-1.5385l0.3846,1.5385l1.1539,0.3846l-1.1539,0.3846l-0.3846,1.5385l-0.3846,-1.5385l-1.1538,-0.3846l1.1538,-0.3846zm13.3956,12.9769l-0.3846,1.5384l-1.1538,0.3847l1.1538,0.3846l0.3846,1.5384l0.3846,-1.5384l1.1539,-0.3846l-1.1539,-0.3847l-0.3846,-1.5384z" class="ccustom" fill="#4845D2" id="svg_1"/>
  <path fill-rule="evenodd" clip-rule="evenodd" d="m42.6663,2.64667c-3.6087,0 -7.031,1.60291 -9.3413,4.37521l-8.219,9.86291l4.746,-7.1191l-7.878,3.3763c-1.0005,0.4288 -1.2515,1.7323 -0.4819,2.502l2.5352,2.5351l-1.2944,1.5533l2.8477,2.8476l1.5532,-1.2944l2.5352,2.5352c0.7696,0.7696 2.0732,0.5186 2.5019,-0.4818l3.3763,-7.878l-7.119,4.746l9.8629,-8.2191c2.7723,-2.3102 4.3752,-5.7325 4.3752,-9.34122zm-7.8309,7.83112c0.7863,0.7863 2.0612,0.7863 2.8476,0c0.7863,-0.7864 0.7863,-2.0613 0,-2.8476c-0.7864,-0.78639 -2.0613,-0.78639 -2.8476,0c-0.7864,0.7863 -0.7864,2.0612 0,2.8476z" class="ccompli2" fill="#A3A2FF" id="svg_11"/>
  <path opacity="0.6" d="m0.92243,18.55629c1.88546,6.4598 13.34867,6.123 21.21347,2.0739c-5.2664,2.6316 -17.72445,3.1342 -21.21347,-2.0739z" fill="#424242" id="svg_12"/>
  <path opacity="0.6" d="m23.8048,40.57569c-5.3108,2.2046 -3.1348,-9.6158 -0.6004,-15.1558c-1.8474,4.9242 -3.4244,15.7793 1.3303,14.5677l-0.2809,0.2652c-0.1726,0.1306 -0.2995,0.2214 -0.449,0.3229z" fill="#424242" id="svg_13"/>
 </g>

</svg>